<?xml version="1.0" standalone="no"?>
<!DOCTYPE svg PUBLIC "-//W3C//DTD SVG 20010904//EN"
 "http://www.w3.org/TR/2001/REC-SVG-20010904/DTD/svg10.dtd">
<svg version="1.0" xmlns="http://www.w3.org/2000/svg"
 width="393.000000pt" height="393.000000pt" viewBox="0 0 393.000000 393.000000"
 preserveAspectRatio="xMidYMid meet">
<metadata>
Created by potrace 1.11, written by Peter Selinger 2001-2013
</metadata>
<g transform="translate(0.000000,393.000000) scale(0.100000,-0.100000)"
fill="#000000" stroke="none">
<path d="M1715 3913 c-524 -76 -975 -365 -1267 -813 -72 -111 -177 -332 -193
-407 -4 -18 -11 -33 -16 -33 -6 0 -8 -4 -5 -8 3 -5 -1 -30 -9 -55 -8 -26 -11
-47 -8 -47 3 0 -2 -10 -13 -22 -10 -12 -13 -18 -5 -13 10 5 12 3 7 -11 -6 -22
-17 -79 -21 -114 -4 -39 -9 -54 -20 -62 -6 -5 -5 -8 3 -8 15 0 9 -44 -10 -68
-10 -12 -10 -14 0 -8 8 5 12 0 12 -14 0 -12 -4 -19 -8 -16 -5 3 -9 -1 -9 -9 0
-8 4 -12 9 -9 4 3 8 -2 8 -11 0 -11 -5 -15 -15 -12 -8 4 -17 2 -20 -4 -4 -5
-3 -9 2 -8 22 4 31 -3 30 -26 0 -13 -3 -22 -8 -19 -5 3 -9 0 -9 -5 0 -6 4 -11
8 -11 5 0 9 -14 10 -32 1 -23 -2 -28 -8 -18 -6 8 -10 10 -10 4 0 -5 4 -14 9
-20 6 -5 11 -36 13 -69 2 -48 0 -59 -11 -57 -12 3 -12 0 -1 -12 9 -12 10 -19
1 -30 -9 -10 -7 -17 6 -27 16 -12 17 -12 6 2 -13 16 -8 29 9 29 5 0 6 -4 3
-10 -3 -5 -3 -16 1 -22 5 -7 9 -19 10 -28 1 -8 5 -28 8 -45 4 -16 8 -39 10
-50 1 -11 5 -26 10 -33 9 -15 19 -65 20 -99 1 -13 7 -23 14 -23 16 0 15 -12
-1 -34 -12 -16 -17 -17 -38 -6 -19 10 -22 10 -12 0 6 -7 9 -19 6 -26 -5 -13 8
-19 30 -15 5 1 6 -9 3 -21 -3 -13 -3 -17 0 -10 3 6 10 9 15 6 16 -9 -10 -34
-29 -27 -14 4 -15 3 -2 -5 8 -6 18 -8 23 -5 5 3 8 0 5 -7 -2 -7 6 -24 19 -38
13 -14 21 -28 18 -31 -3 -3 -17 7 -31 22 -14 15 -27 27 -30 27 -8 0 30 -49 38
-50 4 0 5 -9 3 -20 -2 -11 2 -26 10 -34 8 -7 11 -17 7 -22 -4 -5 0 -3 10 4 10
8 19 9 22 3 3 -5 0 -12 -6 -14 -10 -4 -10 -6 0 -6 6 -1 12 -6 12 -12 0 -5 -4
-7 -10 -4 -5 3 -10 1 -10 -5 0 -7 8 -9 22 -4 20 6 21 5 9 -9 -7 -9 -17 -14
-22 -11 -5 3 -6 -2 -3 -10 5 -13 9 -12 25 7 22 27 24 16 4 -22 -16 -31 -10
-47 12 -30 23 19 16 -8 -9 -33 -17 -17 -18 -20 -4 -15 10 4 20 7 22 7 2 0 4 7
4 15 0 15 3 17 42 19 12 0 23 7 26 14 3 11 0 12 -18 2 -18 -10 -21 -10 -14 2
6 9 2 9 -12 -2 -18 -14 -18 -14 -4 5 14 18 13 19 -1 8 -13 -10 -16 -10 -16 2
0 8 5 12 10 8 5 -3 2 6 -7 19 -9 14 -13 28 -9 33 5 4 2 5 -6 0 -10 -6 -12 -4
-6 5 5 8 4 11 -2 7 -5 -3 -10 0 -10 8 0 8 5 11 11 8 6 -3 5 0 -2 8 -17 19 -15
28 7 26 11 0 17 -5 15 -9 -3 -4 -1 -8 4 -8 12 0 12 -32 -1 -48 -12 -16 5 -16
22 1 9 7 11 7 8 1 -4 -7 0 -14 8 -18 17 -6 20 -26 4 -26 -5 0 -7 5 -4 10 3 6
2 10 -4 10 -5 0 -12 -4 -16 -9 -7 -12 25 -30 42 -24 8 3 12 -4 12 -19 -1 -13
-1 -27 1 -33 5 -20 0 -36 -10 -30 -5 3 -10 1 -10 -6 0 -7 -3 -9 -7 -5 -5 4 1
14 11 22 19 13 11 20 -17 15 -5 -1 -6 3 -2 9 12 20 -5 10 -37 -22 -18 -18 -25
-29 -16 -26 10 4 23 -1 34 -13 16 -17 16 -22 4 -29 -8 -6 -19 -10 -24 -10 -5
0 -7 -3 -4 -6 4 -3 19 1 34 9 17 9 23 17 15 21 -6 4 -11 11 -11 17 0 5 9 4 19
-3 23 -14 23 -29 -1 -43 -17 -10 -17 -11 0 -22 15 -9 22 -6 39 13 12 13 17 24
11 24 -6 0 -8 3 -5 6 3 4 2 14 -3 23 -5 10 -5 23 0 31 9 15 25 7 25 -13 1 -7
7 -11 14 -9 7 1 10 -2 6 -8 -3 -6 -11 -8 -16 -5 -5 4 -9 -1 -9 -9 0 -19 11
-20 30 -3 12 10 12 9 2 -5 -8 -10 -9 -19 -3 -22 5 -3 12 0 14 6 4 9 6 9 6 1 1
-6 -6 -18 -14 -26 -12 -13 -12 -16 0 -21 8 -3 16 3 20 15 6 19 25 18 25 -2 0
-6 -5 -7 -12 -3 -8 5 -9 2 -5 -9 3 -9 3 -16 -1 -16 -19 3 -26 -2 -13 -10 17
-11 43 -3 35 10 -3 5 0 9 5 9 6 0 11 -3 11 -7 0 -14 -17 -35 -26 -33 -5 1 -10
-3 -12 -8 -5 -17 27 -7 44 14 15 18 15 18 5 -3 -14 -27 -14 -33 -1 -33 6 0 10
7 10 15 0 8 5 15 10 15 7 0 7 -6 0 -20 -6 -11 -14 -20 -19 -20 -4 0 -8 -7 -8
-15 0 -23 16 -18 29 10 12 27 23 31 34 13 4 -6 3 -8 -3 -5 -6 4 -18 -5 -28
-19 -16 -26 -16 -26 7 -19 22 7 22 7 3 -8 -12 -9 -22 -11 -26 -6 -3 6 -12 9
-20 7 -8 -2 -13 3 -11 10 1 9 -2 11 -10 6 -7 -4 -4 2 6 14 11 12 14 22 8 22
-6 0 -15 -7 -20 -16 -6 -11 -11 -13 -16 -5 -4 6 -2 11 5 11 8 0 6 7 -5 19 -13
15 -14 20 -4 25 7 3 3 3 -9 0 -13 -3 -24 -2 -24 3 -6 36 -5 54 3 59 4 3 6 10
3 15 -7 11 -26 12 -24 2 1 -5 1 -21 0 -38 -1 -25 -3 -27 -12 -13 -10 19 -34
15 -43 -7 -3 -8 0 -17 6 -21 6 -4 9 -3 6 2 -3 5 0 14 7 21 10 9 15 6 25 -12 7
-13 10 -31 6 -40 -3 -9 -2 -13 4 -10 6 3 10 13 10 21 0 12 4 12 20 4 11 -6 20
-16 20 -22 0 -6 -6 -5 -17 3 -11 10 -14 10 -9 2 4 -8 2 -13 -6 -13 -8 0 -6 -5
5 -11 15 -9 16 -13 6 -25 -10 -12 -9 -18 6 -32 18 -16 18 -16 5 1 -11 15 -11
20 2 34 15 14 16 13 17 -8 1 -50 4 -60 15 -49 15 15 30 12 17 -4 -15 -18 16
-31 35 -15 17 14 18 -2 1 -20 -9 -11 -9 -13 0 -7 8 4 13 2 13 -5 0 -18 10 -5
15 20 2 11 1 21 -4 21 -4 0 -7 11 -7 25 0 14 4 25 8 25 4 0 8 -5 8 -11 0 -5 5
-7 10 -4 6 4 8 10 6 14 -7 11 12 36 21 28 4 -5 1 -12 -7 -17 -8 -6 -11 -10 -6
-10 5 0 2 -8 -6 -17 -21 -24 -20 -55 2 -48 11 3 21 -3 30 -20 7 -13 16 -23 19
-20 4 2 13 -1 21 -6 13 -8 13 -10 0 -19 -8 -5 -13 -10 -10 -11 3 0 13 -2 24
-4 10 -2 29 7 42 20 13 13 24 20 24 16 0 -5 -7 -14 -15 -21 -21 -17 -19 -37 4
-45 23 -7 42 -28 45 -51 2 -10 9 -20 16 -22 9 -3 10 0 4 9 -6 12 -5 12 9 0 10
-8 21 -10 25 -6 4 4 3 9 -3 12 -30 11 -40 22 -27 33 6 5 10 7 7 4 -2 -4 6 -15
18 -25 21 -18 21 -20 4 -33 -10 -8 -14 -17 -9 -20 12 -7 33 16 36 40 2 10 9
20 17 22 11 3 11 1 -1 -7 -8 -6 -11 -11 -6 -11 4 0 1 -11 -7 -24 -13 -19 -14
-27 -3 -41 11 -15 14 -15 25 -2 8 10 9 17 1 22 -5 3 -10 1 -10 -6 0 -7 -2 -10
-5 -7 -3 3 -2 13 1 22 5 14 9 15 15 4 7 -10 9 -10 9 0 0 6 5 12 11 12 8 0 7
-6 -2 -17 -12 -15 -12 -16 6 -10 14 5 12 1 -7 -14 -35 -26 -37 -45 -3 -23 26
17 45 12 45 -12 0 -10 5 -12 13 -8 9 6 9 4 -1 -8 -8 -10 -9 -19 -3 -22 5 -4
12 3 16 14 3 11 11 20 16 20 5 0 9 8 10 18 0 12 3 11 10 -7 6 -16 6 -28 -1
-36 -13 -16 6 -31 32 -27 22 4 33 -16 18 -33 -14 -17 0 -21 16 -5 6 6 18 8 27
4 14 -5 15 -10 5 -27 -6 -12 -12 -24 -12 -27 -1 -3 -5 -4 -9 -2 -5 1 -6 -2 -2
-8 10 -16 -1 -12 -16 7 -8 10 -9 14 -2 10 6 -4 15 -2 19 4 4 8 3 9 -4 5 -8 -5
-10 -1 -6 11 3 10 2 14 -3 8 -13 -15 -36 -18 -27 -3 6 10 5 11 -8 1 -12 -11
-18 -10 -31 5 -8 9 -16 21 -15 25 0 5 -3 11 -6 15 -3 3 -6 -3 -6 -13 0 -14 -3
-16 -11 -8 -6 6 -11 17 -12 24 -6 37 -40 47 -78 23 -8 -4 -9 -3 -5 4 4 7 2 12
-3 12 -13 0 -14 -27 -2 -34 5 -4 11 0 14 6 2 7 8 10 12 6 4 -4 2 -15 -5 -23
-10 -12 -11 -18 -1 -28 10 -9 11 -8 5 8 -8 19 -7 19 18 3 20 -13 28 -14 38 -5
10 9 11 7 6 -10 -4 -12 -2 -24 4 -28 6 -3 7 -12 4 -18 -5 -9 -4 -9 5 -1 10 9
24 6 57 -13 24 -14 41 -29 38 -34 -3 -5 -2 -9 3 -8 19 5 41 -14 36 -29 -4 -15
-3 -15 6 -2 8 11 7 18 -4 26 -8 6 -11 15 -7 19 4 5 2 5 -4 2 -7 -4 -18 1 -25
10 -12 14 -11 15 9 9 15 -5 22 -3 22 5 0 7 3 9 8 5 7 -7 8 -11 11 -37 1 -8 5
-8 15 0 9 7 17 8 20 3 3 -6 -1 -13 -10 -16 -9 -4 -14 -9 -11 -13 4 -3 13 -1
20 5 10 9 19 7 36 -9 12 -12 25 -18 29 -14 3 3 2 9 -3 13 -16 11 -16 32 -1 26
7 -3 16 2 19 10 7 19 3 20 -23 6 -16 -9 -19 -8 -14 7 5 15 4 16 -5 3 -8 -12
-11 -12 -11 -1 0 10 -3 11 -14 2 -10 -8 -16 -9 -21 -1 -5 9 14 15 38 11 14 -2
7 12 -18 35 -25 23 -36 10 -12 -15 10 -11 10 -13 0 -7 -7 4 -13 2 -13 -3 0 -6
-4 -11 -9 -11 -5 0 -8 12 -6 27 3 27 37 63 59 63 6 -1 2 -6 -10 -13 -20 -12
-22 -37 -3 -37 6 0 7 4 4 10 -3 5 -1 10 5 10 7 0 10 -7 7 -15 -4 -8 -2 -17 3
-20 6 -4 10 -3 10 2 0 4 9 19 19 32 14 19 20 21 26 10 5 -8 4 -11 0 -6 -5 4
-17 -5 -27 -20 -24 -37 -23 -55 2 -23 11 14 20 20 20 15 0 -6 -5 -16 -12 -23
-9 -9 -9 -12 -1 -12 7 0 15 5 19 11 10 17 25 -12 18 -36 -5 -20 -5 -20 10 -1
9 10 13 23 10 27 -3 5 -1 9 4 9 5 0 9 -20 8 -45 -1 -50 -3 -52 -23 -27 -8 9
-12 12 -9 6 3 -6 -1 -11 -9 -11 -8 0 -12 3 -10 7 2 4 -2 7 -9 7 -8 0 -12 -6
-9 -14 3 -7 9 -13 15 -13 5 0 6 -6 2 -12 -6 -10 -4 -10 7 0 22 20 34 14 14 -8
-10 -11 -15 -23 -12 -27 4 -3 7 -1 7 6 0 7 5 9 12 5 7 -4 8 -3 4 4 -3 6 3 16
14 22 11 6 18 15 15 21 -4 5 -2 9 4 9 5 0 8 14 6 30 -4 28 -3 29 11 15 9 -9
17 -29 18 -46 2 -28 1 -29 -11 -13 -7 10 -13 13 -13 8 0 -6 6 -16 13 -23 10
-10 9 -12 -3 -11 -33 5 -42 1 -28 -13 10 -12 15 -12 26 0 19 18 27 16 29 -8 2
-17 -1 -18 -13 -9 -8 7 -14 10 -14 7 0 -2 6 -10 14 -16 12 -10 18 -7 31 16 9
15 14 20 11 11 -3 -10 -1 -28 5 -40 8 -20 9 -19 3 7 l-6 30 26 -24 c14 -13 23
-27 21 -31 -2 -4 2 -7 10 -7 8 0 12 4 10 8 -3 4 2 9 10 13 8 3 19 -2 24 -11 7
-14 10 -13 15 5 7 21 9 21 38 6 16 -8 31 -14 32 -12 6 11 36 79 36 83 0 2 -8
2 -17 -2 -11 -4 -14 -3 -8 3 5 5 12 13 16 17 3 4 11 -4 17 -18 7 -15 8 -24 3
-21 -5 3 -12 -1 -15 -10 -9 -24 -7 -28 9 -14 8 7 15 9 15 4 0 -5 5 -2 10 6 6
10 4 22 -5 37 -24 36 -17 40 8 5 13 -17 28 -28 33 -24 4 4 2 -1 -5 -11 -18
-23 -11 -29 12 -12 17 12 17 14 -5 35 l-23 22 23 -11 c12 -6 22 -17 22 -23 0
-9 3 -9 12 0 7 7 17 12 22 12 6 0 3 -5 -6 -11 -17 -10 -14 -39 4 -39 6 0 7 7
4 16 -3 8 -2 12 3 9 10 -6 27 33 22 50 -1 6 1 7 5 3 4 -4 14 0 22 10 10 12 9
8 -2 -10 -20 -34 -20 -44 -1 -28 10 9 15 9 15 1 0 -6 -5 -11 -11 -11 -5 0 -7
-5 -4 -10 3 -6 1 -10 -4 -10 -6 0 -11 6 -11 13 0 8 -4 7 -10 -3 -15 -23 -12
-27 13 -26 12 1 28 -2 35 -7 15 -12 16 5 1 20 -7 7 -3 16 15 30 14 11 22 24
18 28 -4 5 -1 5 6 1 17 -10 15 -24 -4 -28 -14 -3 -14 -6 5 -28 l21 -25 -3 25
c-1 17 4 25 17 28 22 5 48 -18 28 -25 -6 -3 -10 -9 -7 -14 4 -5 17 -2 31 7 20
14 23 14 19 2 -4 -9 0 -15 10 -15 9 0 14 6 11 13 -8 20 11 27 35 14 24 -13 41
-4 19 10 -8 5 -12 11 -9 14 6 6 53 -46 56 -63 2 -6 -2 -11 -7 -11 -6 0 -10 7
-10 16 0 8 -5 12 -10 9 -8 -5 -8 -11 0 -20 8 -10 8 -15 -1 -21 -8 -5 -10 -3
-5 7 4 8 -2 3 -13 -10 -24 -27 -42 -21 -20 6 8 9 9 14 2 10 -18 -11 -25 10 -8
26 13 13 13 16 -1 21 -9 3 -17 6 -18 6 -2 0 -2 -13 -1 -29 2 -31 -19 -37 -36
-10 -8 14 -10 12 -13 -13 -1 -13 -34 -20 -41 -8 -3 5 -1 11 5 15 6 4 8 11 5
16 -7 11 -26 12 -24 2 3 -21 -2 -45 -8 -39 -5 4 -8 12 -8 18 0 6 -8 12 -17 14
-10 1 -16 -3 -15 -9 1 -7 -8 -11 -23 -9 -14 2 -41 4 -60 5 -20 2 -40 6 -45 8
-6 3 -22 5 -37 4 -17 -1 -25 2 -21 9 5 8 2 8 -8 0 -8 -6 -21 -10 -30 -9 -12 2
-15 -5 -14 -29 2 -17 4 -33 5 -36 1 -3 2 -8 1 -12 0 -4 6 -5 15 -1 12 4 13 8
3 14 -20 12 -22 48 -2 45 9 -2 19 -9 21 -16 3 -7 0 -10 -7 -6 -6 4 -11 3 -11
-2 0 -5 11 -9 25 -9 21 0 24 3 19 21 -6 19 -5 19 10 7 9 -8 14 -21 11 -30 -2
-9 0 -23 6 -31 8 -11 9 -9 3 10 l-7 24 28 -18 c17 -11 24 -13 19 -5 -13 22
-14 41 -1 36 7 -2 12 -9 12 -14 0 -20 13 -25 35 -13 12 7 19 18 16 26 -9 24 2
16 19 -13 15 -27 15 -27 9 -3 -6 23 -6 24 11 10 10 -8 21 -14 24 -13 3 1 8 -1
10 -3 2 -2 -3 -4 -12 -4 -10 0 -17 -5 -17 -11 0 -7 8 -6 23 4 12 8 21 21 19
27 -1 7 3 10 10 7 7 -2 12 -10 10 -16 -1 -7 2 -10 8 -6 5 3 10 1 10 -5 0 -6 5
-8 10 -5 13 8 13 -8 -1 -22 -8 -8 -7 -13 2 -18 7 -5 10 -4 5 3 -3 6 -2 13 4
17 5 3 8 19 6 36 -2 19 1 28 8 26 6 -2 10 -14 9 -26 -2 -13 1 -20 7 -16 6 3
10 14 10 23 1 16 1 16 11 0 6 -12 19 -16 39 -13 17 2 30 -1 30 -6 0 -5 5 -9
11 -9 8 0 7 6 -2 17 -12 15 -12 16 3 10 10 -3 20 -2 23 3 4 6 11 10 17 10 7 0
6 -6 -2 -15 -7 -8 -11 -15 -9 -16 31 -6 39 -6 39 1 0 5 -5 10 -11 12 -6 2 -1
12 11 23 21 19 21 19 17 -5 -2 -14 -2 -19 0 -11 4 12 6 12 15 0 7 -10 8 -8 3
8 -5 18 -3 21 15 18 11 -2 25 -7 30 -10 6 -4 17 -2 25 5 9 7 15 8 20 0 3 -5
12 -10 18 -10 7 0 3 7 -7 15 -10 8 -23 12 -27 9 -5 -3 -9 -1 -9 5 0 15 18 23
25 11 4 -6 10 -8 15 -5 4 3 10 -2 13 -10 6 -14 43 -13 56 1 3 4 -2 4 -11 1
-10 -4 -18 -3 -18 2 0 16 13 20 32 10 18 -10 19 -9 7 13 -15 29 -24 38 -16 16
4 -12 2 -15 -9 -11 -11 4 -12 9 -4 18 7 9 7 15 1 19 -5 4 -13 -3 -16 -15 -4
-12 -10 -18 -14 -13 -10 14 -34 16 -25 3 5 -8 3 -9 -6 -4 -9 6 -11 4 -5 -6 6
-11 5 -12 -5 -2 -12 11 -11 15 5 27 11 8 23 12 27 10 5 -3 8 -1 8 3 0 5 9 9
20 10 11 1 20 -3 20 -9 0 -17 14 0 17 22 1 10 -2 22 -7 25 -6 4 -7 11 -4 17 4
6 -1 8 -14 4 -23 -8 -39 8 -21 20 8 4 9 3 5 -4 -5 -8 1 -11 16 -9 12 1 23 -3
23 -10 0 -16 15 -29 15 -14 0 8 7 11 15 7 8 -3 19 3 25 12 8 14 9 13 7 -7 -1
-13 4 -26 11 -28 7 -3 10 1 6 11 -3 9 -1 16 6 16 6 0 9 -4 6 -9 -3 -5 1 -12 9
-15 13 -5 14 -10 4 -27 -9 -17 -13 -19 -20 -8 -8 13 -13 5 -10 -14 1 -5 -3 -6
-9 -2 -6 3 -8 11 -5 16 4 5 2 9 -4 9 -5 0 -13 -4 -16 -10 -3 -5 -1 -10 5 -10
6 0 15 -11 22 -25 10 -23 12 -23 39 -9 16 8 31 14 34 14 24 -1 24 3 4 21 -23
20 -18 21 26 3 8 -3 15 -1 15 6 0 6 -4 8 -10 5 -5 -3 -10 -2 -10 2 0 5 9 14
21 21 16 10 20 10 18 0 -3 -25 1 -36 17 -42 8 -3 12 -2 9 4 -3 6 -1 10 6 10 8
0 9 3 0 13 -22 27 3 26 26 -1 20 -21 23 -22 14 -5 -14 27 -4 54 16 46 12 -5
12 -7 1 -14 -10 -7 -9 -12 6 -26 16 -15 18 -15 7 -1 -10 14 -9 18 8 27 11 6
18 17 15 24 -6 17 25 19 46 3 13 -10 13 -9 1 7 -12 16 -12 20 3 35 17 16 18
16 11 -5 -3 -13 -3 -23 2 -24 4 0 18 -2 30 -3 12 -1 20 1 17 6 -4 5 -12 7 -20
4 -7 -3 -16 -1 -19 4 -4 6 -1 10 4 10 6 0 10 3 10 8 -3 19 2 33 11 27 5 -3 6
-13 3 -23 -5 -14 -3 -15 7 -5 10 10 11 15 1 27 -7 9 -8 16 -2 20 5 4 13 -3 16
-15 l7 -21 15 21 c14 21 33 20 33 0 0 -6 -4 -8 -9 -4 -5 3 -12 1 -15 -4 -4 -5
2 -8 11 -7 20 3 28 22 14 31 -7 4 -8 12 -1 24 7 14 19 18 47 15 20 -1 33 0 28
4 -14 10 -17 32 -5 32 6 0 15 -10 20 -23 8 -20 9 -20 10 -2 0 11 7 28 14 38
12 15 18 17 36 7 12 -6 24 -9 27 -7 2 3 -4 8 -15 11 -11 4 -23 14 -26 22 -3 8
-11 12 -17 8 -6 -3 -16 0 -21 7 -8 11 -9 10 -4 -4 3 -11 2 -16 -4 -12 -9 6
-14 -8 -11 -28 0 -4 -4 -7 -9 -7 -9 0 -14 14 -11 33 1 10 -17 9 -23 -2 -3 -4
-2 -11 1 -15 4 -4 8 -13 9 -22 2 -11 -1 -12 -10 -5 -7 6 -17 6 -26 1 -12 -8
-10 -10 8 -10 12 0 22 -5 22 -10 0 -13 -32 -9 -42 5 -4 5 -10 6 -15 2 -4 -5
-1 -12 7 -17 11 -7 12 -10 2 -10 -7 0 -11 -4 -7 -9 3 -5 0 -13 -6 -17 -7 -4
-9 -3 -6 3 4 7 -5 10 -22 9 -16 0 -27 -4 -25 -8 3 -4 -5 -5 -16 -3 -11 2 -19
1 -16 -3 2 -4 -3 -16 -11 -27 -12 -15 -14 -16 -10 -3 3 9 0 19 -9 22 -25 9
-25 7 -8 -19 13 -20 14 -25 3 -23 -8 2 -13 -3 -11 -11 3 -12 1 -12 -14 0 -10
8 -15 9 -11 2 5 -8 -2 -10 -24 -6 -26 4 -31 2 -25 -12 4 -10 2 -14 -6 -9 -7 5
-8 3 -3 -6 5 -8 4 -11 -3 -6 -6 4 -9 12 -6 20 3 7 -2 13 -10 13 -8 0 -14 -9
-13 -19 1 -10 7 -18 14 -18 7 0 13 -4 13 -9 0 -6 -9 -9 -19 -8 -11 0 -19 5
-18 10 1 5 -5 12 -13 14 -12 4 -12 3 -1 -5 8 -6 9 -12 3 -16 -6 -3 -13 0 -15
6 -4 10 -6 9 -6 -1 -1 -11 -4 -11 -16 -1 -9 8 -15 8 -15 2 0 -6 6 -13 13 -16
8 -3 7 -5 -3 -4 -8 1 -26 -4 -39 -11 -15 -8 -21 -9 -16 -2 4 7 1 19 -7 28 -7
9 -8 14 -3 12 11 -6 47 26 38 34 -2 3 4 10 15 16 16 8 21 7 26 -5 4 -9 1 -23
-5 -30 -6 -8 -8 -14 -3 -14 15 1 44 27 44 40 0 7 6 10 13 7 7 -3 21 1 32 9 10
8 16 14 12 14 -4 0 -3 8 2 18 7 13 6 23 -2 31 -9 10 -8 11 6 5 13 -4 16 -12
11 -28 -6 -20 -6 -20 13 -3 11 9 23 14 28 10 4 -5 6 -1 3 7 -3 8 -11 15 -19
15 -8 0 -15 11 -16 25 -2 24 -2 24 5 2 4 -13 12 -23 17 -23 6 1 18 -6 28 -15
23 -19 35 -11 17 11 -9 11 -10 19 -3 26 8 8 13 7 17 0 4 -6 16 -11 27 -11 11
0 18 4 15 9 -7 11 40 32 57 25 8 -3 14 2 14 11 0 8 -4 15 -8 15 -5 0 -13 9
-19 20 -7 14 -7 20 0 20 5 0 10 -7 10 -16 0 -8 4 -12 10 -9 9 6 14 -8 11 -28
-1 -5 4 -7 11 -4 13 5 14 10 4 37 -7 18 10 48 21 37 4 -5 1 -12 -7 -17 -8 -5
-11 -12 -7 -16 4 -4 15 0 24 9 14 13 14 19 3 32 -10 12 -10 19 -2 27 7 7 12 8
12 3 0 -6 5 -3 11 5 9 13 10 13 6 0 -2 -8 -10 -14 -16 -13 -13 3 -15 -13 -2
-21 5 -3 14 1 21 9 7 8 18 15 26 15 7 0 16 5 20 12 5 7 0 9 -14 6 -23 -6 -39
17 -20 28 7 4 8 3 4 -4 -7 -11 24 -18 49 -12 6 2 18 3 28 4 17 0 23 11 10 19
-5 2 -2 2 5 0 8 -1 12 3 9 9 -2 7 -13 11 -23 10 -15 -3 -16 -1 -7 9 10 10 16
9 29 -2 16 -12 17 -12 12 2 -5 13 -2 16 13 12 10 -3 25 0 33 6 10 9 16 9 21 1
5 -7 11 -5 20 7 7 10 17 15 21 10 4 -4 2 -7 -5 -7 -7 0 -10 -4 -7 -9 3 -5 -1
-14 -9 -21 -11 -9 -15 -9 -15 -1 0 7 -5 9 -12 4 -7 -4 -22 -8 -32 -8 -11 0
-21 -7 -24 -15 -5 -13 -3 -13 11 -1 11 9 17 10 18 2 1 -6 3 -15 4 -21 1 -5 3
-15 4 -21 0 -6 9 -1 20 12 17 21 21 22 37 9 17 -14 18 -13 6 1 -11 14 -9 16
13 16 22 0 24 -2 13 -16 -8 -10 -5 -9 10 3 27 23 27 23 0 23 -42 1 -49 3 -43
13 3 5 13 7 23 4 14 -5 15 -4 2 5 -8 5 -11 14 -6 18 4 4 14 -1 22 -11 8 -11
14 -15 14 -9 0 7 -4 15 -10 18 -5 3 -10 11 -10 17 0 7 6 6 15 -2 9 -8 15 -8
15 -2 0 6 8 18 17 28 16 15 17 15 24 -2 7 -16 8 -17 8 -2 1 9 -4 20 -9 23 -6
4 -8 11 -5 16 4 5 1 9 -5 9 -6 0 -8 5 -5 10 4 6 10 8 15 5 5 -3 16 2 24 11 14
14 19 14 33 2 12 -9 15 -9 9 0 -4 7 -2 12 6 12 10 0 10 2 -1 9 -17 11 -23 39
-10 47 8 5 13 -9 10 -28 0 -5 4 -8 10 -8 6 0 9 7 6 15 -7 16 9 30 16 15 3 -6
4 -5 3 2 -2 7 -10 12 -18 10 -8 -1 -15 5 -15 13 0 18 2 18 29 4 15 -8 19 -8
14 0 -4 6 0 21 8 33 9 12 16 18 16 13 0 -6 4 -4 9 4 12 19 2 43 -16 37 -8 -3
-12 -2 -9 2 3 5 -1 9 -9 9 -8 0 -11 -5 -8 -10 3 -6 1 -7 -5 -3 -7 4 -9 -3 -6
-21 5 -26 4 -26 -8 -10 -13 18 -15 18 -28 2 -12 -14 -12 -16 1 -13 8 1 14 -1
14 -7 0 -5 -4 -9 -8 -7 -5 1 -6 -2 -3 -7 3 -5 -1 -12 -10 -15 -9 -4 -14 -13
-10 -22 4 -10 2 -13 -6 -8 -7 5 -8 3 -3 -6 6 -9 4 -11 -6 -5 -8 5 -5 -1 5 -13
18 -21 12 -30 -9 -14 -13 8 -13 22 -1 40 5 9 2 20 -9 30 -17 16 -17 16 -11 -1
3 -10 1 -28 -5 -39 -6 -11 -7 -18 -2 -15 5 4 10 0 10 -7 0 -9 -7 -12 -16 -8
-14 5 -14 3 -2 -11 12 -16 8 -22 -12 -18 -5 1 -6 -3 -2 -9 4 -6 -1 -7 -12 -4
-13 4 -14 3 -5 -3 9 -7 6 -12 -13 -21 -14 -7 -23 -17 -20 -22 8 -13 2 -13 -30
2 -30 14 -31 19 -5 36 12 7 18 18 13 25 -5 9 -3 9 9 -1 12 -10 18 -9 28 3 11
13 9 19 -6 38 -11 12 -12 16 -4 10 13 -10 18 -8 28 7 7 11 18 17 27 14 8 -4
15 -1 15 5 0 6 -5 11 -11 11 -8 0 -9 4 0 13 6 8 7 18 3 23 -4 4 1 2 11 -5 9
-7 17 -10 17 -6 0 4 7 2 15 -5 12 -10 15 -10 15 4 0 15 -12 21 -33 17 -5 -1
-6 3 -3 8 4 5 3 11 -1 14 -5 2 -2 2 6 0 8 -2 11 2 7 12 -3 10 -2 13 5 10 6 -4
8 -14 5 -22 -4 -9 -1 -13 6 -10 7 2 12 12 10 22 -3 13 1 16 12 12 21 -8 20 2
-1 26 -10 11 -13 17 -6 14 6 -4 14 -1 17 5 3 7 4 4 3 -6 -1 -10 3 -21 9 -23 7
-2 10 10 8 37 -3 36 -1 40 15 35 15 -4 18 0 17 22 -1 19 4 27 13 25 8 -2 11 3
8 12 -4 11 -1 13 11 9 15 -6 16 -5 2 13 -9 12 -9 15 -1 7 7 -6 20 -9 29 -6 10
4 13 1 10 -8 -3 -8 -10 -14 -15 -14 -6 0 -15 -3 -19 -7 -4 -5 1 -8 12 -8 14 0
16 -2 5 -9 -7 -5 -9 -11 -5 -13 5 -3 3 -3 -4 -1 -7 1 -11 -1 -8 -6 3 -5 -1
-14 -9 -21 -8 -7 -12 -17 -8 -23 3 -6 1 -7 -5 -3 -7 4 -10 -1 -7 -14 3 -14 0
-18 -8 -14 -9 5 -9 3 0 -6 7 -8 15 -11 19 -8 5 5 7 14 13 48 1 3 5 -2 10 -9 6
-9 6 -22 0 -32 -14 -28 -11 -36 6 -12 8 12 12 30 9 40 -6 15 -4 16 7 6 7 -7
18 -13 24 -13 5 0 2 5 -8 11 -14 8 -16 14 -6 25 6 8 7 14 2 14 -5 0 -10 7 -10
15 0 10 6 14 14 10 8 -3 17 -5 19 -5 3 0 3 -4 0 -9 -3 -5 1 -12 9 -15 14 -5
14 -2 0 24 -19 37 -19 46 0 30 13 -10 18 -11 28 -1 9 10 8 11 -5 6 -27 -10
-22 4 5 15 l22 9 -22 0 c-26 1 -31 16 -8 25 9 3 14 15 12 28 -2 12 2 29 10 36
8 9 11 23 7 36 -4 11 -3 18 1 14 4 -4 16 -3 27 3 16 9 17 13 6 27 -11 13 -11
15 4 9 10 -3 20 -2 23 3 3 4 -6 7 -20 5 -14 -1 -28 2 -31 6 -3 5 -1 9 5 9 6 0
8 7 5 15 -9 21 -24 8 -19 -16 3 -13 -5 -29 -19 -42 -36 -34 -64 -94 -31 -67 8
7 13 15 11 19 -7 11 12 36 21 28 4 -5 1 -12 -6 -16 -9 -6 -10 -11 -2 -15 6 -4
11 -2 11 5 0 7 3 9 6 6 10 -10 -17 -38 -29 -30 -6 4 -7 1 -2 -7 6 -9 4 -11 -5
-5 -9 6 -11 4 -5 -5 6 -9 4 -11 -6 -5 -8 5 -11 4 -6 -1 5 -5 14 -9 20 -9 5 0
12 -6 15 -13 3 -11 0 -12 -17 -3 -17 9 -21 9 -19 -1 2 -7 -2 -12 -9 -11 -7 2
-11 -3 -9 -10 1 -6 1 -9 -1 -5 -2 4 -10 5 -18 2 -19 -8 -27 12 -10 26 12 10
15 10 15 0 0 -17 13 -4 16 16 2 11 -3 14 -14 10 -15 -5 -15 -5 -1 6 15 13 26
34 27 52 0 5 6 12 13 17 7 4 14 15 15 25 2 9 6 20 11 23 5 3 8 13 8 21 -1 8 5
23 13 33 8 9 12 17 7 17 -4 0 -3 6 3 13 6 6 11 15 11 20 1 4 1 8 2 10 0 1 2
11 4 21 2 10 9 22 15 26 7 4 11 10 10 14 -1 4 1 17 5 29 7 20 10 38 14 68 0 5
6 7 11 4 6 -3 10 -2 10 4 0 5 -6 12 -12 14 -10 4 -10 6 -1 6 21 2 25 -19 9
-44 -9 -14 -13 -25 -8 -25 5 0 9 -6 9 -12 0 -7 2 -19 4 -27 2 -7 -2 -16 -10
-19 -8 -2 -11 0 -8 5 3 5 1 15 -5 23 -8 12 -9 12 -4 -2 3 -11 0 -18 -7 -18 -9
0 -8 -3 1 -9 11 -6 10 -10 -4 -15 -9 -3 -14 -9 -11 -13 4 -3 2 -12 -4 -19 -7
-8 -6 -14 2 -20 8 -5 4 -11 -12 -21 -13 -8 -16 -12 -6 -9 15 5 16 2 7 -14 -12
-21 0 -33 24 -24 18 7 21 20 6 29 -5 3 -10 12 -10 18 1 7 9 2 19 -10 l18 -22
1 29 c0 20 -5 31 -18 35 -11 3 -19 12 -17 18 2 12 36 31 49 29 4 -1 5 8 2 21
-14 65 -14 67 1 67 10 0 13 -5 9 -12 -4 -7 -3 -10 1 -5 5 4 10 18 11 30 2 12
0 16 -2 10 -8 -18 -25 -16 -18 1 3 7 -1 20 -9 27 -19 20 -20 21 -6 54 6 17 11
42 10 58 -1 15 3 27 9 27 5 0 7 -6 4 -14 -6 -15 33 -43 44 -32 3 3 0 6 -7 6
-7 0 -9 4 -6 10 3 6 -1 7 -9 4 -9 -3 -16 -1 -16 5 0 11 15 15 35 11 6 -1 6 2
2 7 -5 4 -16 8 -24 8 -9 0 -18 6 -20 13 -3 6 0 12 7 12 6 0 8 -5 4 -12 -5 -7
-3 -8 6 -3 11 7 10 10 -1 19 -8 6 -15 17 -17 25 -3 12 -1 12 14 0 16 -13 16
-12 5 10 -10 18 -10 25 -1 31 9 6 9 9 -1 12 -8 3 -11 9 -7 13 4 4 16 2 25 -6
10 -7 7 -1 -6 14 l-24 27 24 1 c15 1 18 3 8 6 -13 3 -17 16 -17 58 1 37 5 52
12 48 8 -5 8 -3 0 8 -16 22 -18 79 -2 79 11 0 11 2 0 9 -8 4 -12 14 -11 22 2
8 -1 41 -5 74 -4 33 -9 78 -12 100 -7 63 -10 79 -17 100 -3 11 -9 36 -11 55
-3 19 -14 62 -26 95 -11 33 -18 65 -15 73 2 7 1 11 -3 8 -4 -2 -16 19 -26 47
-71 203 -232 452 -403 624 -300 300 -660 473 -1085 523 -104 12 -328 8 -433
-7z m-1525 -2023 c0 -5 -2 -10 -4 -10 -3 0 -8 5 -11 10 -3 6 -1 10 4 10 6 0
11 -4 11 -10z m87 -376 c-3 -4 0 -16 8 -26 7 -11 11 -27 8 -36 -5 -11 -3 -13
7 -7 8 5 11 4 6 -3 -3 -6 -2 -13 4 -17 6 -4 8 -11 5 -16 -4 -5 0 -9 7 -9 8 0
9 -3 3 -8 -13 -9 -16 -42 -4 -42 5 0 9 8 10 18 0 14 2 14 8 -3 5 -11 6 -26 3
-34 -3 -9 -1 -12 6 -7 6 3 13 2 17 -3 3 -6 -4 -8 -16 -6 -18 4 -20 1 -16 -23
5 -25 4 -25 -9 -8 -7 10 -11 23 -8 27 3 5 -3 6 -12 2 -11 -4 -13 -8 -6 -11 7
-2 12 -9 12 -15 0 -8 -4 -7 -12 1 -17 17 -18 40 -1 46 12 5 11 10 -5 33 -26
38 -33 61 -21 69 7 4 6 10 0 18 -6 7 -8 16 -4 19 3 4 1 8 -5 8 -7 1 -16 3 -22
4 -5 1 -13 3 -17 4 -5 1 6 8 22 16 35 16 41 17 32 9z m3423 -34 c0 -15 -5 -12
-26 11 -19 22 -19 22 4 10 12 -6 22 -16 22 -21z m-26 -29 c3 -5 -1 -11 -9 -14
-9 -4 -12 -1 -8 9 6 16 10 17 17 5z m-17 -98 c-3 -2 -15 -6 -28 -8 -22 -4 -22
-3 -7 9 10 7 14 17 10 22 -4 4 1 2 11 -5 9 -8 16 -16 14 -18z m-81 -148 c1
-13 -3 -23 -10 -22 -6 1 -10 -6 -10 -15 1 -10 -4 -14 -11 -11 -10 3 -9 13 7
39 11 19 21 34 21 34 1 0 3 -11 3 -25z m-3206 -29 c0 -2 -7 -9 -15 -16 -13
-11 -14 -10 -9 4 5 14 24 23 24 12z m46 -78 c-12 -20 -22 -23 -31 -8 -3 6 2
10 12 10 15 0 16 2 3 10 -12 7 -10 9 6 8 18 -2 20 -5 10 -20z m3112 10 c-2 -6
-12 -12 -22 -14 -14 -2 -15 0 -5 12 14 17 32 19 27 2z m-3071 -40 c15 -21 -1
-73 -19 -62 -6 4 -5 10 3 14 19 12 19 39 1 50 -10 5 -12 10 -6 10 6 0 16 -6
21 -12z m3030 -57 c0 -1 -11 -14 -25 -31 -25 -29 -47 -35 -23 -6 6 8 11 18 10
22 -3 18 1 22 19 19 9 -2 18 -4 19 -4z m-77 -75 c0 -3 -4 -8 -10 -11 -5 -3
-10 -1 -10 4 0 6 5 11 10 11 6 0 10 -2 10 -4z m-140 -67 c0 -6 -4 -7 -10 -4
-5 3 -10 11 -10 16 0 6 5 7 10 4 6 -3 10 -11 10 -16z m-43 -21 c-3 -8 -6 -5
-6 6 -1 11 2 17 5 13 3 -3 4 -12 1 -19z m143 18 c0 -2 -7 -9 -15 -16 -13 -11
-14 -10 -9 4 5 14 24 23 24 12z m-2795 -16 c4 -6 10 -8 15 -5 5 3 11 1 15 -5
4 -6 10 -8 15 -5 10 6 8 -15 -3 -32 -12 -19 -28 -16 -25 5 2 10 -3 17 -12 17
-15 0 -30 13 -30 28 0 11 18 9 25 -3z m2626 -23 c-10 -9 -11 -8 -5 6 3 10 9
15 12 12 3 -3 0 -11 -7 -18z m-2503 -7 c-7 -11 -16 -20 -20 -20 -11 0 -10 9 5
25 18 21 29 18 15 -5z m32 -21 c0 -6 -5 -7 -12 -3 -8 5 -9 1 -4 -12 5 -14 4
-16 -4 -8 -12 12 -3 47 11 38 5 -3 9 -10 9 -15z m2579 -14 c-11 -6 -16 -15
-12 -20 4 -4 0 -5 -9 -2 -10 3 -20 2 -23 -3 -3 -5 -12 -7 -19 -4 -8 3 -17 1
-20 -5 -8 -12 -36 -3 -36 11 0 5 5 6 10 3 6 -3 10 -2 10 3 0 15 -28 22 -34 9
-3 -8 -5 -8 -5 -1 -1 6 7 18 16 25 9 8 14 9 10 2 -7 -11 15 -24 37 -22 5 0 12
-4 15 -9 4 -7 13 -5 25 4 14 10 16 14 5 14 -8 1 -3 7 11 15 18 10 27 10 32 2
4 -7 -1 -16 -13 -22z m-2534 5 c-3 -5 -13 -10 -21 -10 -19 0 -18 -17 1 -23 12
-4 11 -5 -1 -3 -27 2 -28 25 -2 35 30 13 30 13 23 1z m18 -30 c3 -11 1 -18 -4
-14 -5 3 -9 12 -9 20 0 20 7 17 13 -6z m2360 12 c3 8 6 8 6 2 1 -18 -26 -36
-46 -31 -14 4 -13 5 5 6 13 0 20 5 17 11 -4 6 -11 7 -17 4 -7 -4 -8 -2 -4 5 6
9 11 9 21 1 10 -8 14 -7 18 2z m22 -31 c-3 -6 -11 -11 -16 -11 -5 0 -4 6 3 14
14 16 24 13 13 -3z m-2395 -11 c0 -5 -4 -10 -10 -10 -5 0 -10 5 -10 10 0 6 5
10 10 10 6 0 10 -4 10 -10z m46 -25 c-3 -8 -2 -15 2 -15 5 0 17 -7 28 -15 10
-8 15 -14 9 -14 -19 -1 -58 36 -51 48 10 16 19 14 12 -4z m2246 -3 c3 8 7 6
11 -6 4 -10 3 -15 -3 -11 -6 3 -10 0 -10 -7 0 -8 -5 -6 -11 5 -6 9 -15 14 -21
11 -7 -4 -8 -2 -4 5 6 9 11 9 21 1 10 -8 14 -8 17 2z m-2188 -14 c-3 -4 -11
-5 -19 -1 -21 7 -19 12 4 10 11 0 18 -5 15 -9z m2326 3 c0 -5 -6 -14 -14 -20
-12 -10 -14 -9 -11 6 2 10 4 19 4 21 2 6 21 1 21 -7z m-2305 -11 c-3 -5 2 -10
11 -10 10 0 15 -3 11 -6 -10 -10 -39 5 -32 16 3 5 8 10 11 10 3 0 2 -4 -1 -10z
m2063 -40 c-7 -10 -14 -17 -17 -15 -4 4 18 35 25 35 2 0 -1 -9 -8 -20z m-1955
-35 c-3 -9 -8 -14 -10 -11 -3 3 -2 9 2 15 9 16 15 13 8 -4z m1919 -2 c-6 -2
-10 -9 -7 -14 4 -5 -1 -6 -10 -2 -13 5 -14 7 -3 14 7 5 18 8 23 8 6 0 4 -3 -3
-6z m-49 -18 c-3 -9 -8 -14 -10 -11 -3 3 -2 9 2 15 9 16 15 13 8 -4z m-1853
-15 c0 -5 -4 -10 -10 -10 -5 0 -10 5 -10 10 0 6 5 10 10 10 6 0 10 -4 10 -10z
m1818 -10 c-7 -10 -14 -17 -17 -15 -4 4 18 35 25 35 2 0 -1 -9 -8 -20z m-1738
-10 c0 -5 -5 -10 -11 -10 -5 0 -7 5 -4 10 3 6 8 10 11 10 2 0 4 -4 4 -10z
m1774 -2 c-3 -4 0 -8 7 -8 7 0 9 -3 6 -6 -4 -4 -14 -1 -24 7 -15 12 -16 12
-11 -2 4 -9 -2 -20 -13 -28 -22 -13 -43 -6 -33 11 5 8 1 9 -10 5 -10 -4 -15
-3 -11 3 3 6 1 10 -6 10 -7 0 -10 3 -7 6 10 9 49 -16 43 -27 -4 -5 -1 -9 5 -9
6 0 14 11 19 23 5 13 16 24 25 24 8 0 13 -4 10 -9z m160 -13 c-18 -28 -31 -32
-31 -10 0 8 2 13 5 10 2 -2 11 2 19 10 22 23 25 18 7 -10z m-1994 5 c0 -5 -4
-10 -10 -10 -5 0 -10 5 -10 10 0 6 5 10 10 10 6 0 10 -4 10 -10z m100 -10 c0
-5 -5 -10 -11 -10 -5 0 -7 5 -4 10 3 6 8 10 11 10 2 0 4 -4 4 -10z m1623 -12
c13 -10 14 -17 6 -28 -9 -12 -10 -12 -5 4 5 14 2 17 -9 12 -9 -3 -14 -2 -10 3
3 5 -1 12 -7 14 -7 3 -8 6 -2 6 5 1 18 -5 27 -11z m-1649 -23 c-10 -8 -23 -14
-29 -14 -5 0 -1 6 9 14 11 8 24 15 30 15 5 0 1 -7 -10 -15z m53 9 c-3 -3 -12
-4 -19 -1 -8 3 -5 6 6 6 11 1 17 -2 13 -5z m-165 -38 c7 -12 7 -21 -1 -29 -7
-7 -12 -6 -17 6 -3 9 -9 15 -13 13 -4 -3 -7 4 -7 14 0 22 25 20 38 -4z m198
14 c0 -5 -2 -10 -4 -10 -3 0 -8 5 -11 10 -3 6 -1 10 4 10 6 0 11 -4 11 -10z
m55 1 c3 -5 0 -13 -6 -17 -8 -5 -9 -3 -4 6 6 10 4 12 -9 7 -10 -4 -15 -3 -11
3 8 13 22 13 30 1z m-83 -21 c-2 -9 6 -10 25 -6 23 5 25 4 10 -5 -21 -12 -51
-4 -42 11 3 5 1 10 -4 10 -6 0 -11 -5 -11 -12 0 -6 -3 -9 -6 -5 -9 9 6 29 19
24 7 -3 11 -10 9 -17z m1508 10 c0 -5 -8 -10 -17 -10 -15 0 -16 2 -3 10 19 12
20 12 20 0z m-1403 -31 c-16 -22 -16 -22 -14 -1 0 11 5 18 9 16 4 -3 8 0 8 7
0 7 3 10 6 6 3 -3 -1 -16 -9 -28z m43 11 c0 -5 -2 -10 -4 -10 -3 0 -8 5 -11
10 -3 6 -1 10 4 10 6 0 11 -4 11 -10z m1243 -7 c-7 -2 -19 -2 -25 0 -7 3 -2 5
12 5 14 0 19 -2 13 -5z m74 1 c-3 -3 -12 -4 -19 -1 -8 3 -5 6 6 6 11 1 17 -2
13 -5z m47 -8 c-3 -9 -12 -12 -22 -8 -15 5 -15 4 -3 -11 7 -9 9 -17 3 -17 -5
0 -13 7 -16 15 -5 13 10 25 41 34 1 1 0 -5 -3 -13z m206 -1 c0 -12 -19 -12
-23 0 -4 9 -1 12 9 8 7 -3 14 -7 14 -8z m-1521 -5 c-6 -5 -18 -6 -26 -3 -19 8
-16 11 13 11 17 0 22 -3 13 -8z m1231 0 c0 -5 -4 -10 -10 -10 -5 0 -10 5 -10
10 0 6 5 10 10 10 6 0 10 -4 10 -10z m228 -10 c-7 -10 -14 -17 -17 -15 -4 4
18 35 25 35 2 0 -1 -9 -8 -20z m-1738 -32 c0 17 26 8 27 -10 2 -22 0 -22 -37
-3 -17 9 -30 23 -31 33 0 14 -2 14 -8 -2 -6 -15 -10 -16 -16 -7 -4 8 -2 17 6
22 10 6 21 1 37 -17 12 -14 22 -21 22 -16z m1443 0 c-6 -11 -33 -10 -33 2 0 5
6 7 14 4 11 -4 13 1 10 18 -4 21 -3 21 5 3 4 -11 7 -23 4 -27z m-1193 21 c0
-5 -4 -7 -10 -4 -5 3 -10 1 -10 -6 0 -7 -3 -10 -6 -6 -8 7 4 27 17 27 5 0 9
-5 9 -11z m60 0 c0 -5 -4 -8 -9 -5 -5 4 -11 1 -13 -6 -2 -6 -15 -13 -29 -15
-18 -2 -20 -1 -9 6 8 5 17 8 21 5 4 -2 9 3 13 11 6 17 26 20 26 4z m1063 -4
c-3 -9 -8 -14 -10 -11 -3 3 -2 9 2 15 9 16 15 13 8 -4z m24 -7 c-3 -8 -6 -5
-6 6 -1 11 2 17 5 13 3 -3 4 -12 1 -19z m90 7 c4 -4 3 -5 -4 -2 -6 4 -13 2
-15 -5 -3 -8 -6 -6 -10 4 -7 17 15 19 29 3z m59 3 c5 -7 3 -8 -6 -3 -10 6 -12
4 -7 -9 4 -10 3 -15 -3 -11 -13 8 -13 35 -1 35 6 0 13 -5 17 -12z m-221 -19
c-4 -5 -14 -8 -23 -8 -15 1 -15 2 1 6 9 2 14 9 11 15 -4 7 -2 8 5 4 6 -4 9
-12 6 -17z m-962 -2 c-3 -5 -14 -6 -25 -4 -14 4 -18 2 -14 -9 3 -8 2 -13 -3
-9 -5 3 -11 0 -13 -7 -3 -7 -7 -5 -11 6 -4 9 -3 15 2 12 5 -3 11 0 14 7 2 6
16 12 30 12 14 0 23 -4 20 -8z m17 -12 c-7 -8 -16 -15 -21 -15 -5 0 -1 8 9 18
20 22 31 19 12 -3z m966 1 c0 -14 -5 -21 -9 -17 -4 4 -5 15 -1 24 9 24 12 21
10 -7z m-925 0 c5 3 12 -1 15 -10 3 -8 14 -13 25 -11 10 2 22 -1 25 -7 4 -7 2
-8 -4 -4 -12 7 -16 -4 -13 -34 2 -13 0 -13 -8 -1 -5 8 -7 21 -3 29 3 10 1 13
-6 8 -6 -3 -14 0 -19 8 -4 8 -12 15 -18 15 -5 0 -10 4 -11 11 -2 6 -1 7 3 0 2
-5 9 -8 14 -4z m84 5 c3 -5 2 -12 -3 -15 -5 -3 -9 1 -9 9 0 17 3 19 12 6z
m757 -5 c7 4 8 2 4 -5 -9 -13 -26 -5 -25 12 0 9 2 8 6 -1 2 -6 10 -9 15 -6z
m-717 -6 c3 -5 1 -10 -4 -10 -6 0 -11 5 -11 10 0 6 2 10 4 10 3 0 8 -4 11 -10z
m643 -10 c-7 -10 -14 -17 -17 -15 -4 4 18 35 25 35 2 0 -1 -9 -8 -20z m185 5
c-3 -9 -8 -14 -10 -11 -3 3 -2 9 2 15 9 16 15 13 8 -4z m74 6 c16 13 17 13 4
-3 -17 -22 -35 -23 -52 -1 -13 15 -12 15 8 3 18 -12 24 -12 40 1z m-304 -16
c-3 -9 -8 -14 -10 -11 -3 3 -2 9 2 15 9 16 15 13 8 -4z m503 -7 c0 -20 -5 -22
-26 -8 -13 9 -13 10 0 10 13 0 13 1 0 10 -12 7 -11 9 5 8 13 -1 21 -9 21 -20z
m-1259 -7 c0 -11 -5 -17 -9 -15 -4 3 -8 1 -8 -5 0 -14 18 -23 25 -12 3 5 16
-1 30 -15 25 -24 52 -33 39 -12 -4 6 -3 8 3 5 6 -4 14 1 17 10 5 12 9 14 18 5
17 -17 33 -15 18 3 -9 10 -9 15 -1 15 6 0 11 -4 11 -10 0 -5 8 -10 18 -10 10
-1 4 -6 -14 -14 -18 -8 -35 -19 -38 -25 -9 -13 0 -14 23 -2 9 5 23 6 30 2 10
-7 10 -14 -3 -37 -8 -16 -15 -23 -16 -15 0 8 -3 11 -6 8 -4 -3 -15 -2 -25 4
-15 7 -21 6 -25 -6 -4 -10 -10 -12 -18 -6 -7 6 -18 6 -26 1 -10 -6 -23 1 -44
23 -17 18 -37 31 -43 29 -12 -3 -18 12 -13 33 7 31 6 41 -4 47 -7 5 -4 8 8 8
11 0 16 -5 13 -14 -6 -16 19 -56 35 -56 6 0 3 9 -6 19 -14 15 -15 24 -6 40 13
26 19 27 17 2z m257 -8 c-1 -26 -34 -49 -34 -24 0 6 7 7 17 4 11 -4 14 -3 9 6
-4 6 -5 18 -2 26 8 22 12 18 10 -12z m576 23 c0 -2 -7 -7 -16 -10 -8 -3 -12
-2 -9 4 6 10 25 14 25 6z m46 -23 c-3 -3 2 -12 12 -20 15 -13 15 -14 0 -9 -9
3 -19 0 -22 -7 -2 -7 -3 -1 -2 13 2 14 -4 31 -13 38 -13 11 -12 11 7 2 13 -7
21 -14 18 -17z m-516 -10 c0 -3 -3 -3 -7 0 -3 4 -11 0 -17 -8 -9 -13 -11 -11
-11 9 0 20 3 22 18 15 9 -5 17 -13 17 -16z m44 -19 c-7 -6 -10 -15 -6 -19 4
-5 1 -5 -7 0 -12 7 -12 10 0 19 8 6 13 20 12 31 l-3 20 9 -20 c6 -14 5 -23 -5
-31z m51 25 c-4 -5 -12 -9 -18 -8 -9 0 -8 2 1 6 6 2 9 10 6 15 -4 7 -2 8 5 4
6 -4 9 -12 6 -17z m95 6 c0 -2 -6 -5 -13 -8 -8 -3 -14 1 -14 8 0 7 6 11 14 8
7 -3 13 -6 13 -8z m171 1 c5 3 9 1 9 -4 0 -21 -26 -19 -27 2 0 11 1 15 4 8 3
-6 9 -10 14 -6z m64 -15 c-6 -5 -25 10 -25 20 0 5 6 4 14 -3 8 -7 12 -15 11
-17z m-1015 4 c7 -8 8 -15 2 -15 -5 0 -15 7 -22 15 -7 8 -8 15 -2 15 5 0 15
-7 22 -15z m289 -30 c0 -5 -6 -1 -14 9 -8 11 -15 24 -15 30 0 5 7 1 15 -10 8
-10 14 -23 14 -29z m61 35 c-8 -5 -19 -10 -25 -10 -5 0 -3 5 5 10 8 5 20 10
25 10 6 0 3 -5 -5 -10z m64 -5 c-4 -8 -8 -15 -10 -15 -2 0 -4 7 -4 15 0 8 4
15 10 15 5 0 7 -7 4 -15z m326 5 c0 -5 -5 -10 -11 -10 -5 0 -7 5 -4 10 3 6 8
10 11 10 2 0 4 -4 4 -10z m94 2 c3 -5 -1 -9 -9 -9 -8 0 -12 4 -9 9 3 4 7 8 9
8 2 0 6 -4 9 -8z m-309 -11 c3 -6 -5 -15 -17 -21 -21 -10 -21 -10 -6 3 10 8
15 17 11 20 -3 4 -4 7 0 7 3 0 8 -4 12 -9z m279 -7 c3 -8 2 -12 -4 -9 -6 3
-10 10 -10 16 0 14 7 11 14 -7z m344 -9 c-3 -3 -9 2 -12 12 -6 14 -5 15 5 6 7
-7 10 -15 7 -18z m-366 -37 c-9 -9 -15 -9 -24 1 -11 12 -10 13 6 7 16 -5 17
-2 12 21 -5 27 -5 27 6 5 9 -17 8 -26 0 -34z m203 43 c-3 -5 2 -17 11 -25 8
-9 11 -16 5 -16 -6 0 -15 9 -21 19 -13 25 -13 31 1 31 5 0 8 -4 4 -9z m66 -3
c1 -7 1 -16 0 -20 -2 -12 17 -10 22 2 3 6 4 5 3 -2 -2 -7 -14 -13 -29 -13 -14
-1 -24 2 -21 6 2 4 -1 9 -8 12 -7 2 -2 2 11 0 21 -4 23 -2 12 11 -9 11 -10 16
-2 16 6 0 12 -6 12 -12z m-230 -25 c-12 -20 -14 -14 -5 12 4 9 9 14 11 11 3
-2 0 -13 -6 -23z m49 12 c0 -8 -4 -15 -10 -15 -5 0 -7 7 -4 15 4 8 8 15 10 15
2 0 4 -7 4 -15z m-310 -10 c0 -1 -12 -2 -26 -2 -17 0 -22 2 -13 7 10 7 39 3
39 -5z m154 7 c2 -4 -4 -8 -14 -8 -10 0 -16 4 -14 8 3 4 9 8 14 8 5 0 11 -4
14 -8z m34 -6 c-7 -8 -15 -12 -17 -11 -5 6 10 25 20 25 5 0 4 -6 -3 -14z m178
5 c-4 -5 -1 -12 4 -14 6 -3 5 -4 -2 -3 -15 3 -23 26 -8 26 6 0 9 -4 6 -9z m42
-9 c2 -7 -1 -12 -8 -12 -6 0 -9 4 -6 9 4 5 1 12 -4 14 -6 3 -5 4 2 3 6 -1 14
-8 16 -14z m422 8 c0 -5 -2 -10 -4 -10 -3 0 -8 5 -11 10 -3 6 -1 10 4 10 6 0
11 -4 11 -10z m-90 -26 c8 -8 9 -14 4 -13 -5 2 -19 -1 -32 -5 -31 -10 -40 1
-16 19 24 18 29 18 44 -1z m-404 -11 c-3 9 -1 17 4 17 5 0 10 -10 12 -22 2
-11 11 -22 21 -24 13 -2 16 2 12 17 -4 11 -2 19 5 19 6 0 8 -4 5 -10 -3 -5 -1
-10 5 -10 6 0 9 -4 5 -9 -3 -5 0 -13 6 -17 8 -5 9 -3 4 6 -6 9 -4 11 6 5 11
-6 12 -5 2 6 -20 21 -16 26 27 26 42 0 58 -18 34 -38 -12 -10 -12 -14 -2 -22
9 -6 7 -7 -7 -2 -37 13 -74 13 -86 -1 -6 -7 -16 -11 -24 -8 -7 3 -16 0 -20 -5
-3 -6 -11 -9 -16 -5 -5 3 -16 1 -24 -6 -9 -8 -15 -8 -20 0 -4 6 -3 9 2 8 14
-4 54 23 48 33 -4 5 0 9 7 9 7 0 2 7 -10 16 -12 8 -22 20 -22 26 0 7 7 3 16
-8 13 -16 15 -16 10 -1z m234 -23 c0 -3 -4 -11 -9 -18 -7 -11 -9 -10 -15 3 -3
9 -11 13 -17 9 -7 -4 -9 -3 -5 4 6 11 46 13 46 2z m-660 -26 c0 -8 -19 -13
-24 -6 -3 5 1 9 9 9 8 0 15 -2 15 -3z m87 -9 c34 1 54 -22 31 -37 -17 -10 -31
-10 -24 1 8 12 -21 34 -34 26 -6 -3 -8 -11 -5 -16 13 -20 -11 -7 -28 16 -18
25 -18 25 5 17 13 -4 37 -8 55 -7z m110 8 c-4 -3 1 -16 10 -27 17 -20 17 -20
1 -7 -10 7 -18 10 -18 7 0 -4 -5 -4 -10 -1 -11 7 5 35 18 35 3 0 2 -3 -1 -7z
m83 -35 c0 -4 -4 -8 -9 -8 -6 0 -12 4 -15 8 -3 5 1 9 9 9 8 0 15 -4 15 -9z"/>
<path d="M276 1432 c-3 -6 -2 -13 4 -17 6 -4 8 -9 6 -13 -2 -4 2 -15 9 -26 12
-16 13 -15 11 13 -2 35 -20 59 -30 43z"/>
<path d="M316 1337 c-16 -12 -16 -14 -3 -14 9 0 18 6 21 14 3 7 4 13 3 13 -2
0 -11 -6 -21 -13z"/>
<path d="M599 827 c6 -8 7 -18 3 -22 -4 -5 -1 -5 6 -1 10 6 10 11 1 22 -6 8
-14 14 -16 14 -3 0 0 -6 6 -13z"/>
<path d="M1435 291 c-3 -6 -4 -12 -1 -12 37 -8 56 -21 49 -33 -4 -6 1 -4 11 3
16 13 17 13 14 -4 -2 -14 4 -19 29 -21 18 -1 35 2 39 7 3 5 10 7 15 4 17 -11
50 -14 44 -4 -4 5 -1 9 5 9 6 0 8 5 4 11 -3 6 -9 7 -13 2 -5 -8 -18 -9 -45 -5
-5 1 -1 11 8 21 10 11 13 21 7 25 -5 4 -12 -3 -16 -14 -8 -25 -25 -25 -58 0
-27 21 -42 26 -32 11 11 -18 -16 -23 -35 -6 -12 11 -20 13 -25 6z m115 -44 c0
-5 8 -6 17 -3 10 4 14 3 9 -1 -4 -4 -21 -8 -37 -9 -22 0 -26 3 -17 13 10 13 0
18 -25 14 -5 -1 -6 3 -2 8 7 12 55 -7 55 -22z"/>
<path d="M2250 235 c5 -6 8 -14 5 -16 -2 -3 4 -5 15 -6 10 -1 24 5 31 13 13
16 14 15 -29 19 -24 2 -30 -1 -22 -10z m40 -9 c-7 -7 -13 -7 -20 0 -6 6 -3 10
10 10 13 0 16 -4 10 -10z"/>
<path d="M2160 196 c-12 -19 -12 -20 3 -8 9 8 20 11 25 8 6 -3 15 0 20 7 9 10
6 13 -12 13 -13 0 -29 -9 -36 -20z"/>
<path d="M1827 179 c7 -7 15 -10 18 -7 3 3 -2 9 -12 12 -14 6 -15 5 -6 -5z"/>
<path d="M3750 2490 c0 -5 5 -10 11 -10 5 0 7 5 4 10 -3 6 -8 10 -11 10 -2 0
-4 -4 -4 -10z"/>
<path d="M153 2285 c0 -8 4 -12 9 -9 5 3 6 10 3 15 -9 13 -12 11 -12 -6z"/>
<path d="M106 2208 c3 -5 10 -6 15 -3 13 9 11 12 -6 12 -8 0 -12 -4 -9 -9z"/>
<path d="M120 2130 c-8 -5 -10 -10 -5 -10 6 0 17 5 25 10 8 5 11 10 5 10 -5 0
-17 -5 -25 -10z"/>
<path d="M135 2079 c-4 -6 -5 -12 -2 -15 2 -3 7 2 10 11 7 17 1 20 -8 4z"/>
<path d="M3770 2060 c-11 -7 -11 -10 -2 -10 8 0 10 -5 6 -12 -4 -7 -3 -9 1 -5
7 6 17 37 12 37 -1 0 -9 -5 -17 -10z"/>
<path d="M130 2033 c0 -6 8 -17 18 -24 16 -13 16 -13 2 6 -8 11 -16 22 -17 24
-2 2 -3 0 -3 -6z"/>
<path d="M3830 2011 c0 -6 4 -13 10 -16 6 -3 7 1 4 9 -7 18 -14 21 -14 7z"/>
<path d="M140 1981 c0 -7 -5 -9 -12 -5 -7 5 -8 3 -3 -5 5 -9 10 -10 18 -2 6 6
8 14 4 18 -4 3 -7 1 -7 -6z"/>
<path d="M150 1930 c0 -5 5 -10 10 -10 6 0 10 5 10 10 0 6 -4 10 -10 10 -5 0
-10 -4 -10 -10z"/>
<path d="M96 1917 c3 -10 9 -15 12 -12 3 3 0 11 -7 18 -10 9 -11 8 -5 -6z"/>
<path d="M3755 1910 c3 -5 8 -10 11 -10 2 0 4 5 4 10 0 6 -5 10 -11 10 -5 0
-7 -4 -4 -10z"/>
<path d="M119 1882 c-13 -15 -12 -16 3 -4 13 10 17 10 21 0 4 -9 6 -9 6 -1 2
20 -16 24 -30 5z"/>
<path d="M3775 1889 c-4 -6 -4 -13 -1 -16 3 -4 6 -1 6 6 0 7 5 9 10 6 6 -4 7
-11 4 -17 -4 -7 -2 -8 5 -4 9 6 9 11 0 22 -14 17 -16 17 -24 3z"/>
<path d="M120 1856 c0 -2 8 -10 18 -17 15 -13 16 -12 3 4 -13 16 -21 21 -21
13z"/>
<path d="M3816 1832 c-3 -5 1 -9 9 -9 8 0 12 4 9 9 -3 4 -7 8 -9 8 -2 0 -6 -4
-9 -8z"/>
<path d="M155 1810 c3 -5 8 -10 11 -10 2 0 4 5 4 10 0 6 -5 10 -11 10 -5 0 -7
-4 -4 -10z"/>
<path d="M145 1792 c4 -7 1 -21 -7 -30 -12 -15 -11 -16 4 -4 14 11 18 10 25
-3 9 -15 11 -15 24 1 11 15 12 16 0 9 -9 -5 -20 0 -33 16 -11 13 -17 18 -13
11z"/>
<path d="M175 1790 c-3 -5 -1 -10 4 -10 6 0 11 5 11 10 0 6 -2 10 -4 10 -3 0
-8 -4 -11 -10z"/>
<path d="M3726 1764 c-4 -9 -2 -13 5 -8 7 4 19 -3 28 -15 16 -21 17 -21 17 -2
0 11 -4 17 -8 15 -5 -3 -11 2 -14 10 -8 20 -20 20 -28 0z"/>
<path d="M144 1720 c0 -14 3 -16 13 -8 12 9 17 5 15 -13 -1 -4 9 -4 21 -1 18
5 19 7 4 10 -9 2 -15 8 -11 13 3 5 10 6 16 3 7 -5 8 -2 3 5 -5 9 -10 10 -18 2
-6 -6 -16 -7 -26 -1 -13 6 -17 4 -17 -10z"/>
<path d="M3730 1729 c0 -5 -5 -7 -12 -3 -7 4 -8 3 -4 -4 4 -6 13 -9 21 -5 17
6 20 23 5 23 -5 0 -10 -5 -10 -11z"/>
<path d="M3750 1701 c0 -7 -5 -9 -12 -5 -7 5 -8 3 -3 -5 5 -9 10 -10 18 -2 6
6 8 14 4 18 -4 3 -7 1 -7 -6z"/>
<path d="M198 1678 c10 -10 7 -18 -20 -41 -24 -21 -26 -24 -7 -12 25 15 27 15
43 -10 9 -14 12 -25 7 -25 -6 0 -15 8 -20 18 -10 16 -10 16 -11 0 0 -10 5 -18
11 -18 5 0 7 -5 4 -10 -4 -6 -11 -7 -17 -4 -7 5 -8 2 -3 -5 5 -9 10 -10 18 -2
20 20 30 11 12 -9 -18 -20 -18 -21 0 -14 14 6 16 4 10 -6 -5 -8 -4 -11 3 -6 5
3 12 1 14 -6 3 -8 7 -6 11 5 4 10 2 16 -6 14 -7 -1 -13 9 -13 23 -1 14 -3 27
-4 30 -1 3 -3 19 -5 35 -4 43 -3 42 -22 50 -15 5 -16 4 -5 -7z m19 -33 c0 -8
-4 -12 -9 -9 -5 3 -6 10 -3 15 9 13 12 11 12 -6z"/>
<path d="M134 1668 c-2 -4 7 -5 22 -2 18 3 23 1 18 -7 -4 -8 -3 -9 5 -5 6 4 9
11 6 16 -6 10 -44 9 -51 -2z"/>
<path d="M3790 1656 c0 -2 7 -7 16 -10 8 -3 12 -2 9 4 -6 10 -25 14 -25 6z"/>
<path d="M113 1615 c0 -8 4 -12 9 -9 5 3 6 10 3 15 -9 13 -12 11 -12 -6z"/>
<path d="M3755 1619 c-4 -6 -5 -12 -2 -15 2 -3 7 2 10 11 7 17 1 20 -8 4z"/>
<path d="M3730 1601 c0 -6 4 -13 10 -16 6 -3 7 1 4 9 -7 18 -14 21 -14 7z"/>
<path d="M3766 1572 c-3 -5 1 -9 9 -9 8 0 12 4 9 9 -3 4 -7 8 -9 8 -2 0 -6 -4
-9 -8z"/>
<path d="M170 1550 c0 -5 5 -10 11 -10 5 0 7 5 4 10 -3 6 -8 10 -11 10 -2 0
-4 -4 -4 -10z"/>
<path d="M3717 1526 c4 -6 -1 -7 -13 -2 -15 6 -16 5 -7 -5 10 -10 16 -9 29 2
9 8 18 12 20 9 1 -3 5 -3 8 1 3 3 -5 5 -19 5 -13 0 -21 -4 -18 -10z"/>
<path d="M176 1492 c-3 -5 1 -9 9 -9 8 0 12 4 9 9 -3 4 -7 8 -9 8 -2 0 -6 -4
-9 -8z"/>
<path d="M213 1455 c0 -8 4 -15 9 -15 4 0 8 4 8 9 0 6 -4 12 -8 15 -5 3 -9 -1
-9 -9z"/>
<path d="M3619 1433 c-13 -16 -12 -17 4 -4 9 7 17 15 17 17 0 8 -8 3 -21 -13z"/>
<path d="M188 1422 c9 -10 19 -17 21 -16 6 5 -20 34 -30 34 -5 0 -1 -8 9 -18z"/>
<path d="M3722 1428 c-7 -7 -12 -17 -12 -22 0 -6 5 -3 11 7 6 9 15 14 21 11 7
-4 8 -2 4 4 -9 15 -9 15 -24 0z"/>
<path d="M3600 1375 c-7 -9 -8 -15 -2 -15 5 0 12 7 16 15 3 8 4 15 2 15 -2 0
-9 -7 -16 -15z"/>
<path d="M230 1353 c0 -6 8 -17 18 -24 16 -13 16 -13 2 6 -8 11 -16 22 -17 24
-2 2 -3 0 -3 -6z"/>
<path d="M3660 1330 c-8 -5 -10 -10 -5 -10 6 0 17 5 25 10 8 5 11 10 5 10 -5
0 -17 -5 -25 -10z"/>
<path d="M3636 1295 c-3 -8 -1 -15 4 -15 6 0 10 7 10 15 0 8 -2 15 -4 15 -2 0
-6 -7 -10 -15z"/>
<path d="M3646 1253 c-6 -14 -5 -15 5 -6 7 7 10 15 7 18 -3 3 -9 -2 -12 -12z"/>
<path d="M365 1250 c3 -5 8 -10 11 -10 2 0 4 5 4 10 0 6 -5 10 -11 10 -5 0 -7
-4 -4 -10z"/>
<path d="M275 1240 c-3 -6 1 -7 9 -4 18 7 21 14 7 14 -6 0 -13 -4 -16 -10z"/>
<path d="M3669 1213 c-13 -16 -12 -17 4 -4 16 13 21 21 13 21 -2 0 -10 -8 -17
-17z"/>
<path d="M250 1215 c0 -5 5 -17 10 -25 5 -8 10 -10 10 -5 0 6 -5 17 -10 25 -5
8 -10 11 -10 5z"/>
<path d="M293 1185 c0 -8 4 -12 9 -9 5 3 6 10 3 15 -9 13 -12 11 -12 -6z"/>
<path d="M276 1157 c3 -10 9 -15 12 -12 3 3 0 11 -7 18 -10 9 -11 8 -5 -6z"/>
<path d="M3473 1131 c1 -18 -3 -26 -14 -25 -11 1 -16 -7 -15 -27 1 -15 5 -30
9 -33 4 -3 5 -3 2 1 -3 3 0 12 6 20 9 10 8 13 -1 13 -7 0 -2 8 11 18 26 22 35
59 14 59 -9 0 -13 -10 -12 -26z"/>
<path d="M316 1137 c3 -10 9 -15 12 -12 3 3 0 11 -7 18 -10 9 -11 8 -5 -6z"/>
<path d="M475 1091 c-3 -5 -2 -12 3 -15 5 -3 9 1 9 9 0 17 -3 19 -12 6z"/>
<path d="M373 1055 c0 -8 4 -12 9 -9 5 3 6 10 3 15 -9 13 -12 11 -12 -6z"/>
<path d="M3539 1043 c-13 -16 -12 -17 4 -4 16 13 21 21 13 21 -2 0 -10 -8 -17
-17z"/>
<path d="M325 1030 c-3 -6 1 -7 9 -4 18 7 21 14 7 14 -6 0 -13 -4 -16 -10z"/>
<path d="M470 1009 c0 -5 5 -7 10 -4 6 3 10 8 10 11 0 2 -4 4 -10 4 -5 0 -10
-5 -10 -11z"/>
<path d="M400 990 c-12 -7 -10 -9 7 -7 12 0 19 5 17 9 -6 10 -6 10 -24 -2z"/>
<path d="M3526 992 c-3 -5 1 -9 9 -9 8 0 12 4 9 9 -3 4 -7 8 -9 8 -2 0 -6 -4
-9 -8z"/>
<path d="M510 971 c0 -6 4 -12 8 -15 5 -3 9 1 9 9 0 8 -4 15 -9 15 -4 0 -8 -4
-8 -9z"/>
<path d="M466 937 c3 -10 9 -15 12 -12 3 3 0 11 -7 18 -10 9 -11 8 -5 -6z"/>
<path d="M420 936 c0 -2 8 -10 18 -17 15 -13 16 -12 3 4 -13 16 -21 21 -21 13z"/>
<path d="M3470 936 c0 -2 7 -7 16 -10 8 -3 12 -2 9 4 -6 10 -25 14 -25 6z"/>
<path d="M3513 925 c0 -8 4 -12 9 -9 5 3 6 10 3 15 -9 13 -12 11 -12 -6z"/>
<path d="M3305 902 c-5 -9 -9 -22 -9 -27 -1 -6 -11 -24 -24 -40 -14 -20 -20
-23 -16 -10 7 19 6 19 -11 3 -11 -10 -16 -21 -12 -24 9 -9 58 17 51 27 -4 8
29 31 37 26 3 -1 1 2 -3 7 -4 5 -3 17 2 27 6 10 6 20 1 23 -5 3 -12 -2 -16
-12z"/>
<path d="M476 882 c-4 -7 -12 -9 -18 -6 -6 4 -8 3 -5 -3 7 -11 43 -10 54 2 5
4 3 5 -4 2 -6 -4 -13 -2 -15 5 -3 9 -6 9 -12 0z"/>
<path d="M3450 869 c0 -5 5 -7 10 -4 6 3 10 8 10 11 0 2 -4 4 -10 4 -5 0 -10
-5 -10 -11z"/>
<path d="M490 835 c0 -5 5 -17 10 -25 5 -8 10 -10 10 -5 0 6 -5 17 -10 25 -5
8 -10 11 -10 5z"/>
<path d="M3366 825 c-11 -8 -16 -18 -12 -22 4 -4 12 0 17 10 6 9 15 14 21 11
7 -4 8 -2 4 4 -9 14 -7 15 -30 -3z"/>
<path d="M542 775 c15 -16 20 -17 30 -6 11 11 10 13 0 7 -7 -4 -21 -2 -30 5
-15 12 -15 11 0 -6z"/>
<path d="M661 767 c-6 -8 -8 -17 -4 -20 3 -4 -2 -7 -13 -8 -16 0 -15 -2 5 -10
14 -6 21 -15 18 -24 -4 -10 -1 -12 10 -8 10 4 14 2 10 -4 -8 -13 18 -37 32
-29 5 4 14 -2 20 -11 6 -10 11 -13 11 -7 0 7 9 14 21 17 13 3 19 1 16 -6 -3
-7 -9 -11 -15 -10 -6 2 -9 -4 -6 -12 4 -10 2 -13 -8 -10 -8 3 -23 -5 -34 -17
-11 -13 -12 -18 -3 -10 9 6 20 8 24 4 5 -4 5 -2 2 4 -4 7 3 12 18 12 20 0 23
-3 14 -14 -9 -11 -9 -14 0 -14 6 0 16 -10 21 -22 6 -17 9 -18 9 -6 1 9 -3 20
-9 23 -5 3 -10 11 -10 16 0 6 6 7 13 2 6 -4 15 -8 20 -9 4 -1 10 -2 15 -3 4
-1 1 -5 -7 -10 -20 -13 -3 -32 24 -27 14 3 27 0 30 -5 7 -10 -3 -12 -47 -11
-16 0 -28 -3 -28 -8 0 -5 12 -7 27 -4 23 4 25 3 13 -11 -17 -20 -6 -19 15 1
20 21 32 10 14 -13 -13 -15 -12 -15 11 -1 28 16 38 17 59 4 10 -6 16 -5 19 2
2 7 8 12 13 12 6 0 8 -4 5 -8 -2 -4 3 -8 13 -8 12 0 17 6 13 18 -5 22 -11 22
-38 4 -18 -13 -22 -12 -41 9 -11 13 -19 27 -17 30 2 3 1 3 -3 0 -10 -8 -33 16
-26 29 3 6 0 6 -8 -1 -15 -15 -33 -17 -24 -4 3 5 1 12 -5 16 -6 4 -7 11 -4 17
5 7 2 8 -6 3 -10 -6 -12 -4 -7 8 4 12 -2 21 -23 32 -17 9 -30 19 -30 24 0 4
-7 8 -15 8 -8 0 -15 -4 -15 -9 0 -4 5 -8 12 -8 6 0 8 -3 4 -7 -11 -11 -45 38
-39 56 4 13 3 13 -5 2 -8 -11 -11 -10 -16 7 -10 31 -31 45 -45 29z m35 -29 c9
-18 20 -35 23 -38 3 -3 13 -14 21 -25 14 -19 14 -19 -4 -5 -11 8 -21 14 -23
13 -8 -7 -24 -2 -19 6 3 4 -3 16 -13 25 -16 14 -19 30 -12 54 3 8 13 -2 27
-30z m111 -85 c-4 -4 5 -20 20 -37 16 -17 20 -24 11 -17 -10 7 -18 10 -18 6 0
-5 -9 0 -20 10 -15 14 -17 21 -9 32 6 7 14 13 17 13 3 0 2 -3 -1 -7z m43 -83
c0 -5 -5 -10 -11 -10 -5 0 -7 5 -4 10 3 6 8 10 11 10 2 0 4 -4 4 -10z m79 -42
c1 -3 -6 -5 -14 -4 -9 1 -16 6 -16 12 -1 16 -21 34 -32 27 -6 -3 -7 -1 -3 6 5
8 16 5 36 -11 16 -13 29 -26 29 -30z"/>
<path d="M670 736 c0 -2 7 -9 15 -16 13 -11 14 -10 9 4 -5 14 -24 23 -24 12z"/>
<path d="M790 636 c0 -2 8 -10 18 -17 15 -13 16 -12 3 4 -13 16 -21 21 -21 13z"/>
<path d="M587 757 c-3 -8 3 -14 16 -15 12 0 17 2 12 6 -6 4 -13 11 -16 15 -4
4 -9 2 -12 -6z"/>
<path d="M3310 738 c-10 -21 -10 -21 3 -6 8 10 18 14 22 10 5 -4 5 -1 1 6 -10
17 -14 15 -26 -10z"/>
<path d="M628 713 c6 -2 9 -10 6 -15 -4 -7 -2 -8 4 -4 18 11 14 26 -5 25 -11
0 -13 -3 -5 -6z"/>
<path d="M3320 710 c-12 -7 -10 -9 7 -7 12 0 19 5 17 9 -6 10 -6 10 -24 -2z"/>
<path d="M615 670 c3 -5 8 -10 11 -10 2 0 4 5 4 10 0 6 -5 10 -11 10 -5 0 -7
-4 -4 -10z"/>
<path d="M3125 662 c-3 -8 -2 -19 2 -24 4 -7 1 -8 -7 -3 -9 6 -11 4 -5 -5 6
-9 4 -11 -5 -5 -9 6 -11 4 -5 -5 6 -9 4 -11 -5 -5 -9 6 -11 4 -5 -5 6 -9 4
-11 -5 -5 -9 6 -11 4 -5 -5 6 -9 4 -11 -5 -5 -9 6 -11 4 -5 -5 5 -8 4 -11 -3
-7 -13 9 -8 43 7 40 14 -4 15 14 1 22 -6 3 -13 -1 -16 -9 -3 -9 -14 -16 -24
-16 -20 0 -43 -23 -33 -33 3 -4 1 -7 -5 -7 -7 0 -12 -4 -12 -10 0 -19 17 -10
28 15 6 14 17 25 24 25 10 0 10 -3 -1 -9 -7 -5 -10 -14 -7 -20 4 -6 12 -9 17
-5 6 3 19 -2 30 -12 11 -10 29 -18 41 -19 19 -2 19 -1 4 10 -16 12 -23 31 -8
21 4 -2 14 0 22 5 12 8 11 9 -4 7 -10 -2 -21 2 -23 9 -4 11 8 12 47 0 8 -2 12
-2 8 0 -3 2 -4 17 -1 34 2 16 0 29 -6 29 -5 0 -8 -11 -6 -25 1 -14 -2 -24 -8
-22 -19 6 -16 37 5 52 l21 14 -21 -2 c-12 0 -24 -7 -27 -15z m-19 -91 c0 -15
-3 -17 -13 -9 -7 6 -10 14 -7 19 9 15 20 10 20 -10z"/>
<path d="M670 650 c0 -5 10 -14 23 -20 20 -10 20 -10 5 3 -10 8 -15 17 -11 20
3 4 1 7 -5 7 -7 0 -12 -4 -12 -10z"/>
<path d="M3090 650 c0 -5 5 -10 10 -10 6 0 10 5 10 10 0 6 -4 10 -10 10 -5 0
-10 -4 -10 -10z"/>
<path d="M3210 656 c0 -2 7 -7 16 -10 8 -3 12 -2 9 4 -6 10 -25 14 -25 6z"/>
<path d="M715 640 c3 -5 8 -10 11 -10 2 0 4 5 4 10 0 6 -5 10 -11 10 -5 0 -7
-4 -4 -10z"/>
<path d="M3193 632 c-9 -5 -6 -12 10 -21 21 -13 21 -13 7 4 -14 17 -13 18 3
12 11 -4 16 -3 12 3 -7 12 -16 12 -32 2z"/>
<path d="M770 571 c0 -6 4 -13 10 -16 6 -3 7 1 4 9 -7 18 -14 21 -14 7z"/>
<path d="M3155 569 c-3 -4 2 -6 10 -5 21 3 28 13 10 13 -9 0 -18 -4 -20 -8z"/>
<path d="M3135 521 c-3 -5 -2 -12 3 -15 5 -3 9 1 9 9 0 17 -3 19 -12 6z"/>
<path d="M1049 489 c-17 -25 -19 -31 -7 -26 9 3 22 -1 28 -9 7 -8 9 -14 4 -14
-5 0 -1 -5 9 -11 13 -8 22 -7 33 1 18 16 18 30 -1 30 -8 0 -15 -5 -15 -11 0
-5 5 -7 12 -3 7 5 8 3 3 -6 -5 -9 -14 -5 -31 15 -19 22 -21 31 -13 42 7 7 9
16 7 19 -3 3 -16 -9 -29 -27z"/>
<path d="M3050 498 c-10 -21 -10 -21 3 -6 8 10 18 14 22 10 5 -4 5 -1 1 6 -10
17 -14 15 -26 -10z"/>
<path d="M815 501 c-3 -5 -2 -12 3 -15 5 -3 9 1 9 9 0 17 -3 19 -12 6z"/>
<path d="M2876 494 c-21 -20 -20 -33 2 -29 9 2 22 4 27 4 6 1 3 6 -5 11 -13 9
-13 11 0 20 9 6 10 10 3 10 -6 0 -19 -7 -27 -16z"/>
<path d="M900 491 c0 -6 4 -12 8 -15 5 -3 9 1 9 9 0 8 -4 15 -9 15 -4 0 -8 -4
-8 -9z"/>
<path d="M2800 479 c0 -12 38 -31 44 -21 2 4 -7 12 -20 19 -13 6 -24 7 -24 2z"/>
<path d="M876 463 c-6 -14 -5 -15 5 -6 7 7 10 15 7 18 -3 3 -9 -2 -12 -12z"/>
<path d="M910 456 c0 -2 7 -7 16 -10 8 -3 12 -2 9 4 -6 10 -25 14 -25 6z"/>
<path d="M2940 450 c0 -5 5 -10 11 -10 5 0 7 5 4 10 -3 6 -8 10 -11 10 -2 0
-4 -4 -4 -10z"/>
<path d="M2970 450 c0 -5 5 -10 10 -10 6 0 10 5 10 10 0 6 -4 10 -10 10 -5 0
-10 -4 -10 -10z"/>
<path d="M3005 450 c3 -5 8 -10 11 -10 2 0 4 5 4 10 0 6 -5 10 -11 10 -5 0 -7
-4 -4 -10z"/>
<path d="M895 430 c3 -5 8 -10 11 -10 2 0 4 5 4 10 0 6 -5 10 -11 10 -5 0 -7
-4 -4 -10z"/>
<path d="M2742 424 c-7 -8 -17 -12 -21 -10 -4 3 -8 -1 -8 -9 0 -17 24 -28 32
-14 4 5 10 7 15 4 15 -9 23 16 9 30 -12 11 -16 11 -27 -1z m24 -16 c4 -7 4
-10 -1 -6 -4 4 -15 2 -24 -5 -14 -11 -14 -10 -2 6 16 20 18 21 27 5z"/>
<path d="M1156 415 c4 -8 8 -15 10 -15 2 0 4 7 4 15 0 8 -4 15 -10 15 -5 0 -7
-7 -4 -15z"/>
<path d="M2965 390 c-3 -6 1 -7 9 -4 18 7 21 14 7 14 -6 0 -13 -4 -16 -10z"/>
<path d="M2900 376 c7 -7 13 -7 20 0 6 6 3 10 -10 10 -13 0 -16 -4 -10 -10z"/>
<path d="M2581 373 c3 -20 -2 -34 -10 -29 -5 3 -11 -1 -15 -9 -10 -27 11 -24
32 5 26 35 27 40 7 40 -8 0 -14 -3 -14 -7z"/>
<path d="M1010 349 c0 -5 5 -7 10 -4 6 3 10 8 10 11 0 2 -4 4 -10 4 -5 0 -10
-5 -10 -11z"/>
<path d="M1313 354 c3 -4 2 -14 -3 -24 -6 -11 -5 -17 3 -17 7 0 13 11 13 24 1
13 -3 23 -9 23 -6 0 -7 -3 -4 -6z"/>
<path d="M2780 330 c8 -5 20 -10 25 -10 6 0 3 5 -5 10 -8 5 -19 10 -25 10 -5
0 -3 -5 5 -10z"/>
<path d="M1345 321 c-3 -5 -2 -12 3 -15 5 -3 9 1 9 9 0 17 -3 19 -12 6z"/>
<path d="M2440 310 c-6 -11 -8 -20 -4 -20 3 0 1 -6 -5 -13 -8 -11 -6 -19 8
-36 11 -13 17 -30 14 -39 -4 -14 -3 -14 5 -3 6 8 8 21 5 30 -3 9 7 3 22 -14
25 -28 24 -27 -4 16 -26 40 -28 49 -16 59 8 6 20 8 26 4 8 -4 9 -3 5 4 -4 7
-16 16 -26 22 -15 8 -21 6 -30 -10z m30 -4 c0 -2 -7 -7 -16 -10 -8 -3 -12 -2
-9 4 6 10 25 14 25 6z m-15 -47 c11 -16 1 -19 -13 -3 -7 8 -8 14 -3 14 5 0 13
-5 16 -11z"/>
<path d="M2756 311 c-3 -5 1 -14 8 -20 10 -9 16 -9 21 -1 4 6 3 10 -2 9 -20
-3 -27 2 -13 11 9 6 10 10 3 10 -6 0 -14 -4 -17 -9z"/>
<path d="M2510 299 c0 -5 5 -7 10 -4 6 3 10 8 10 11 0 2 -4 4 -10 4 -5 0 -10
-5 -10 -11z"/>
<path d="M1233 285 c0 -7 6 -11 14 -8 7 3 13 6 13 8 0 2 -6 5 -13 8 -8 3 -14
-1 -14 -8z"/>
<path d="M1197 279 c7 -7 15 -10 18 -7 3 3 -2 9 -12 12 -14 6 -15 5 -6 -5z"/>
<path d="M1290 261 c0 -6 4 -13 10 -16 6 -3 7 1 4 9 -7 18 -14 21 -14 7z"/>
<path d="M1886 251 c-4 -5 4 -15 16 -22 22 -12 22 -11 8 7 -8 10 -15 20 -16
22 -1 2 -5 -1 -8 -7z"/>
<path d="M1940 250 c0 -5 6 -10 14 -10 8 0 18 5 21 10 3 6 -3 10 -14 10 -12 0
-21 -4 -21 -10z"/>
<path d="M1253 235 c0 -8 4 -12 9 -9 5 3 6 10 3 15 -9 13 -12 11 -12 -6z"/>
<path d="M1350 230 c-13 -8 -12 -10 3 -10 9 0 17 5 17 10 0 12 -1 12 -20 0z"/>
<path d="M1770 231 c0 -6 4 -13 10 -16 6 -3 7 1 4 9 -7 18 -14 21 -14 7z"/>
<path d="M2090 222 l-22 -18 22 -1 c12 -1 20 1 16 4 -3 3 -1 12 5 20 16 18 5
16 -21 -5z"/>
<path d="M2588 233 c6 -2 18 -2 25 0 6 3 1 5 -13 5 -14 0 -19 -2 -12 -5z"/>
<path d="M2633 223 c0 -9 4 -10 14 -2 7 6 13 12 13 14 0 1 -6 2 -13 2 -8 0
-14 -6 -14 -14z"/>
<path d="M1987 212 c-15 -16 -15 -19 -2 -19 8 0 13 3 10 5 -3 3 0 11 6 19 17
20 5 16 -14 -5z"/>
<path d="M1280 210 c-9 -6 -10 -10 -3 -10 6 0 15 5 18 10 8 12 4 12 -15 0z"/>
<path d="M1393 208 c1 -7 -4 -12 -11 -10 -8 1 -11 -2 -7 -8 5 -8 11 -8 21 1 7
6 11 15 8 20 -8 13 -14 11 -11 -3z"/>
<path d="M1582 179 c-7 -10 -8 -19 -3 -19 5 0 11 6 14 13 3 10 9 10 26 0 25
-16 31 -16 31 -3 0 6 -3 9 -7 8 -5 -1 -17 3 -29 9 -17 10 -22 8 -32 -8z"/>
<path d="M2260 168 c0 -6 3 -8 7 -5 3 4 12 -1 20 -11 13 -15 13 -15 3 6 -11
23 -30 30 -30 10z"/>
<path d="M2319 178 c-8 -27 -5 -36 9 -30 10 4 12 7 4 10 -7 2 -10 8 -6 13 3 5
3 9 0 9 -3 0 -6 -1 -7 -2z"/>
<path d="M2359 163 c-13 -17 -13 -17 6 -3 11 8 22 16 24 17 2 2 0 3 -6 3 -6 0
-17 -8 -24 -17z"/>
<path d="M1602 148 c-15 -15 -16 -28 -2 -28 6 0 9 6 8 13 -2 6 3 11 10 9 8 -1
11 2 7 8 -8 13 -8 13 -23 -2z"/>
<path d="M2435 150 c3 -5 8 -10 11 -10 2 0 4 5 4 10 0 6 -5 10 -11 10 -5 0 -7
-4 -4 -10z"/>
<path d="M1873 117 c1 -19 5 -33 9 -31 6 4 1 55 -7 62 -2 3 -3 -12 -2 -31z"/>
<path d="M1720 130 c-12 -7 -10 -9 7 -7 12 0 19 5 17 9 -6 10 -6 10 -24 -2z"/>
<path d="M1950 136 c0 -2 7 -6 15 -10 8 -3 15 -1 15 4 0 6 -7 10 -15 10 -8 0
-15 -2 -15 -4z"/>
<path d="M2050 136 c0 -2 7 -7 16 -10 8 -3 12 -2 9 4 -6 10 -25 14 -25 6z"/>
<path d="M1826 108 c3 -4 9 -8 15 -8 5 0 9 4 9 8 0 5 -7 9 -15 9 -8 0 -12 -4
-9 -9z"/>
<path d="M1906 108 c3 -4 11 -5 19 -1 21 7 19 12 -4 10 -11 0 -18 -5 -15 -9z"/>
<path d="M2030 108 c0 -4 4 -8 9 -8 6 0 12 4 15 8 3 5 -1 9 -9 9 -8 0 -15 -4
-15 -9z"/>
</g>
</svg>
